<svg width="339" height="575" viewBox="0 0 339 575" fill="none" xmlns="http://www.w3.org/2000/svg">
<g clip-path="url(#clip0_495_5897)" filter="url(#filter0_d_495_5897)">
<path fill-rule="evenodd" clip-rule="evenodd" d="M55.6966 516.997C49.986 516.997 45.3571 512.52 45.3571 506.997C45.3571 501.474 49.986 496.997 55.6966 496.997C61.4071 496.997 66.0361 501.474 66.0361 506.997C71.7466 506.997 76.3756 511.474 76.3756 516.997C76.3756 522.52 71.7466 526.997 66.0361 526.997C60.3256 526.997 55.6966 522.52 55.6966 516.997ZM14.3385 556.997C8.62802 556.997 3.99902 552.52 3.99902 546.997C3.99902 541.474 8.62802 536.997 14.3385 536.997C20.049 536.997 24.678 541.474 24.678 546.997C30.3885 546.997 35.0175 551.474 35.0175 556.997C35.0175 562.52 30.3885 566.997 24.678 566.997C18.9675 566.997 14.3385 562.52 14.3385 556.997ZM22.6101 546.997C22.6101 542.579 18.9065 538.997 14.3385 538.997C9.77054 538.997 6.06692 542.579 6.06692 546.997C6.06692 551.415 9.77054 554.997 14.3385 554.997C18.9065 554.997 22.6101 551.415 22.6101 546.997ZM63.9682 506.997C63.9682 502.579 60.2646 498.997 55.6966 498.997C51.1286 498.997 47.425 502.579 47.425 506.997C47.425 511.415 51.1286 514.997 55.6966 514.997C60.2646 514.997 63.9682 511.415 63.9682 506.997Z" fill="black"/>
<path fill-rule="evenodd" clip-rule="evenodd" d="M55.6966 434.997C49.986 434.997 45.3571 430.52 45.3571 424.997C45.3571 419.474 49.986 414.997 55.6966 414.997C61.4071 414.997 66.0361 419.474 66.0361 424.997C71.7466 424.997 76.3756 429.474 76.3756 434.997C76.3756 440.52 71.7466 444.997 66.0361 444.997C60.3256 444.997 55.6966 440.52 55.6966 434.997ZM14.3385 474.997C8.62802 474.997 3.99902 470.52 3.99902 464.997C3.99902 459.474 8.62802 454.997 14.3385 454.997C20.049 454.997 24.678 459.474 24.678 464.997C30.3885 464.997 35.0175 469.474 35.0175 474.997C35.0175 480.52 30.3885 484.997 24.678 484.997C18.9675 484.997 14.3385 480.52 14.3385 474.997ZM22.6101 464.997C22.6101 460.579 18.9065 456.997 14.3385 456.997C9.77054 456.997 6.06692 460.579 6.06692 464.997C6.06692 469.415 9.77054 472.997 14.3385 472.997C18.9065 472.997 22.6101 469.415 22.6101 464.997ZM63.9682 424.997C63.9682 420.579 60.2646 416.997 55.6966 416.997C51.1286 416.997 47.425 420.579 47.425 424.997C47.425 429.415 51.1286 432.997 55.6966 432.997C60.2646 432.997 63.9682 429.415 63.9682 424.997Z" fill="black"/>
<path fill-rule="evenodd" clip-rule="evenodd" d="M55.6966 352.997C49.986 352.997 45.3571 348.52 45.3571 342.997C45.3571 337.474 49.986 332.997 55.6966 332.997C61.4071 332.997 66.0361 337.474 66.0361 342.997C71.7466 342.997 76.3756 347.474 76.3756 352.997C76.3756 358.52 71.7466 362.997 66.0361 362.997C60.3256 362.997 55.6966 358.52 55.6966 352.997ZM14.3385 392.997C8.62802 392.997 3.99902 388.52 3.99902 382.997C3.99902 377.474 8.62802 372.997 14.3385 372.997C20.049 372.997 24.678 377.474 24.678 382.997C30.3885 382.997 35.0175 387.474 35.0175 392.997C35.0175 398.52 30.3885 402.997 24.678 402.997C18.9675 402.997 14.3385 398.52 14.3385 392.997ZM22.6101 382.997C22.6101 378.579 18.9065 374.997 14.3385 374.997C9.77054 374.997 6.06692 378.579 6.06692 382.997C6.06692 387.415 9.77054 390.997 14.3385 390.997C18.9065 390.997 22.6101 387.415 22.6101 382.997ZM63.9682 342.997C63.9682 338.579 60.2646 334.997 55.6966 334.997C51.1286 334.997 47.425 338.579 47.425 342.997C47.425 347.415 51.1286 350.997 55.6966 350.997C60.2646 350.997 63.9682 347.415 63.9682 342.997Z" fill="black"/>
<path fill-rule="evenodd" clip-rule="evenodd" d="M55.6966 270.997C49.986 270.997 45.3571 266.52 45.3571 260.997C45.3571 255.474 49.986 250.997 55.6966 250.997C61.4071 250.997 66.0361 255.474 66.0361 260.997C71.7466 260.997 76.3756 265.474 76.3756 270.997C76.3756 276.52 71.7466 280.997 66.0361 280.997C60.3256 280.997 55.6966 276.52 55.6966 270.997ZM14.3385 310.997C8.62802 310.997 3.99902 306.52 3.99902 300.997C3.99902 295.474 8.62802 290.997 14.3385 290.997C20.049 290.997 24.678 295.474 24.678 300.997C30.3885 300.997 35.0175 305.474 35.0175 310.997C35.0175 316.52 30.3885 320.997 24.678 320.997C18.9675 320.997 14.3385 316.52 14.3385 310.997ZM22.6101 300.997C22.6101 296.579 18.9065 292.997 14.3385 292.997C9.77054 292.997 6.06692 296.579 6.06692 300.997C6.06692 305.415 9.77054 308.997 14.3385 308.997C18.9065 308.997 22.6101 305.415 22.6101 300.997ZM63.9682 260.997C63.9682 256.579 60.2646 252.997 55.6966 252.997C51.1286 252.997 47.425 256.579 47.425 260.997C47.425 265.415 51.1286 268.997 55.6966 268.997C60.2646 268.997 63.9682 265.415 63.9682 260.997Z" fill="black"/>
<path fill-rule="evenodd" clip-rule="evenodd" d="M55.6966 188.997C49.986 188.997 45.3571 184.52 45.3571 178.997C45.3571 173.474 49.986 168.997 55.6966 168.997C61.4071 168.997 66.0361 173.474 66.0361 178.997C71.7466 178.997 76.3756 183.474 76.3756 188.997C76.3756 194.52 71.7466 198.997 66.0361 198.997C60.3256 198.997 55.6966 194.52 55.6966 188.997ZM14.3385 228.997C8.62802 228.997 3.99902 224.52 3.99902 218.997C3.99902 213.474 8.62802 208.997 14.3385 208.997C20.049 208.997 24.678 213.474 24.678 218.997C30.3885 218.997 35.0175 223.474 35.0175 228.997C35.0175 234.52 30.3885 238.997 24.678 238.997C18.9675 238.997 14.3385 234.52 14.3385 228.997ZM22.6101 218.997C22.6101 214.579 18.9065 210.997 14.3385 210.997C9.77054 210.997 6.06692 214.579 6.06692 218.997C6.06692 223.415 9.77054 226.997 14.3385 226.997C18.9065 226.997 22.6101 223.415 22.6101 218.997ZM63.9682 178.997C63.9682 174.579 60.2646 170.997 55.6966 170.997C51.1286 170.997 47.425 174.579 47.425 178.997C47.425 183.415 51.1286 186.997 55.6966 186.997C60.2646 186.997 63.9682 183.415 63.9682 178.997Z" fill="black"/>
<path fill-rule="evenodd" clip-rule="evenodd" d="M55.6966 106.997C49.986 106.997 45.3571 102.52 45.3571 96.9966C45.3571 91.4736 49.986 86.9966 55.6966 86.9966C61.4071 86.9966 66.0361 91.4736 66.0361 96.9966C71.7466 96.9966 76.3756 101.474 76.3756 106.997C76.3756 112.52 71.7466 116.997 66.0361 116.997C60.3256 116.997 55.6966 112.52 55.6966 106.997ZM14.3385 146.997C8.62802 146.997 3.99902 142.52 3.99902 136.997C3.99902 131.474 8.62802 126.997 14.3385 126.997C20.049 126.997 24.678 131.474 24.678 136.997C30.3885 136.997 35.0175 141.474 35.0175 146.997C35.0175 152.52 30.3885 156.997 24.678 156.997C18.9675 156.997 14.3385 152.52 14.3385 146.997ZM22.6101 136.997C22.6101 132.579 18.9065 128.997 14.3385 128.997C9.77054 128.997 6.06692 132.579 6.06692 136.997C6.06692 141.415 9.77054 144.997 14.3385 144.997C18.9065 144.997 22.6101 141.415 22.6101 136.997ZM63.9682 96.9966C63.9682 92.5786 60.2646 88.9966 55.6966 88.9966C51.1286 88.9966 47.425 92.5786 47.425 96.9966C47.425 101.415 51.1286 104.997 55.6966 104.997C60.2646 104.997 63.9682 101.415 63.9682 96.9966Z" fill="black"/>
<path fill-rule="evenodd" clip-rule="evenodd" d="M140.481 516.997C134.77 516.997 130.141 512.52 130.141 506.997C130.141 501.474 134.77 496.997 140.481 496.997C146.191 496.997 150.82 501.474 150.82 506.997C156.531 506.997 161.16 511.474 161.16 516.997C161.16 522.52 156.531 526.997 150.82 526.997C145.11 526.997 140.481 522.52 140.481 516.997ZM99.1227 556.997C93.4122 556.997 88.7832 552.52 88.7832 546.997C88.7832 541.474 93.4122 536.997 99.1227 536.997C104.833 536.997 109.462 541.474 109.462 546.997C115.173 546.997 119.802 551.474 119.802 556.997C119.802 562.52 115.173 566.997 109.462 566.997C103.752 566.997 99.1227 562.52 99.1227 556.997ZM107.394 546.997C107.394 542.579 103.691 538.997 99.1227 538.997C94.5547 538.997 90.8511 542.579 90.8511 546.997C90.8511 551.415 94.5547 554.997 99.1227 554.997C103.691 554.997 107.394 551.415 107.394 546.997ZM148.752 506.997C148.752 502.579 145.049 498.997 140.481 498.997C135.913 498.997 132.209 502.579 132.209 506.997C132.209 511.415 135.913 514.997 140.481 514.997C145.049 514.997 148.752 511.415 148.752 506.997Z" fill="black"/>
<path fill-rule="evenodd" clip-rule="evenodd" d="M140.481 434.997C134.77 434.997 130.141 430.52 130.141 424.997C130.141 419.474 134.77 414.997 140.481 414.997C146.191 414.997 150.82 419.474 150.82 424.997C156.531 424.997 161.16 429.474 161.16 434.997C161.16 440.52 156.531 444.997 150.82 444.997C145.11 444.997 140.481 440.52 140.481 434.997ZM99.1227 474.997C93.4122 474.997 88.7832 470.52 88.7832 464.997C88.7832 459.474 93.4122 454.997 99.1227 454.997C104.833 454.997 109.462 459.474 109.462 464.997C115.173 464.997 119.802 469.474 119.802 474.997C119.802 480.52 115.173 484.997 109.462 484.997C103.752 484.997 99.1227 480.52 99.1227 474.997ZM107.394 464.997C107.394 460.579 103.691 456.997 99.1227 456.997C94.5547 456.997 90.8511 460.579 90.8511 464.997C90.8511 469.415 94.5547 472.997 99.1227 472.997C103.691 472.997 107.394 469.415 107.394 464.997ZM148.752 424.997C148.752 420.579 145.049 416.997 140.481 416.997C135.913 416.997 132.209 420.579 132.209 424.997C132.209 429.415 135.913 432.997 140.481 432.997C145.049 432.997 148.752 429.415 148.752 424.997Z" fill="black"/>
<path fill-rule="evenodd" clip-rule="evenodd" d="M140.481 352.997C134.77 352.997 130.141 348.52 130.141 342.997C130.141 337.474 134.77 332.997 140.481 332.997C146.191 332.997 150.82 337.474 150.82 342.997C156.531 342.997 161.16 347.474 161.16 352.997C161.16 358.52 156.531 362.997 150.82 362.997C145.11 362.997 140.481 358.52 140.481 352.997ZM99.1227 392.997C93.4122 392.997 88.7832 388.52 88.7832 382.997C88.7832 377.474 93.4122 372.997 99.1227 372.997C104.833 372.997 109.462 377.474 109.462 382.997C115.173 382.997 119.802 387.474 119.802 392.997C119.802 398.52 115.173 402.997 109.462 402.997C103.752 402.997 99.1227 398.52 99.1227 392.997ZM107.394 382.997C107.394 378.579 103.691 374.997 99.1227 374.997C94.5547 374.997 90.8511 378.579 90.8511 382.997C90.8511 387.415 94.5547 390.997 99.1227 390.997C103.691 390.997 107.394 387.415 107.394 382.997ZM148.752 342.997C148.752 338.579 145.049 334.997 140.481 334.997C135.913 334.997 132.209 338.579 132.209 342.997C132.209 347.415 135.913 350.997 140.481 350.997C145.049 350.997 148.752 347.415 148.752 342.997Z" fill="black"/>
<path fill-rule="evenodd" clip-rule="evenodd" d="M140.481 270.997C134.77 270.997 130.141 266.52 130.141 260.997C130.141 255.474 134.77 250.997 140.481 250.997C146.191 250.997 150.82 255.474 150.82 260.997C156.531 260.997 161.16 265.474 161.16 270.997C161.16 276.52 156.531 280.997 150.82 280.997C145.11 280.997 140.481 276.52 140.481 270.997ZM99.1227 310.997C93.4122 310.997 88.7832 306.52 88.7832 300.997C88.7832 295.474 93.4122 290.997 99.1227 290.997C104.833 290.997 109.462 295.474 109.462 300.997C115.173 300.997 119.802 305.474 119.802 310.997C119.802 316.52 115.173 320.997 109.462 320.997C103.752 320.997 99.1227 316.52 99.1227 310.997ZM107.394 300.997C107.394 296.579 103.691 292.997 99.1227 292.997C94.5547 292.997 90.8511 296.579 90.8511 300.997C90.8511 305.415 94.5547 308.997 99.1227 308.997C103.691 308.997 107.394 305.415 107.394 300.997ZM148.752 260.997C148.752 256.579 145.049 252.997 140.481 252.997C135.913 252.997 132.209 256.579 132.209 260.997C132.209 265.415 135.913 268.997 140.481 268.997C145.049 268.997 148.752 265.415 148.752 260.997Z" fill="black"/>
<path fill-rule="evenodd" clip-rule="evenodd" d="M140.481 188.997C134.77 188.997 130.141 184.52 130.141 178.997C130.141 173.474 134.77 168.997 140.481 168.997C146.191 168.997 150.82 173.474 150.82 178.997C156.531 178.997 161.16 183.474 161.16 188.997C161.16 194.52 156.531 198.997 150.82 198.997C145.11 198.997 140.481 194.52 140.481 188.997ZM99.1227 228.997C93.4122 228.997 88.7832 224.52 88.7832 218.997C88.7832 213.474 93.4122 208.997 99.1227 208.997C104.833 208.997 109.462 213.474 109.462 218.997C115.173 218.997 119.802 223.474 119.802 228.997C119.802 234.52 115.173 238.997 109.462 238.997C103.752 238.997 99.1227 234.52 99.1227 228.997ZM107.394 218.997C107.394 214.579 103.691 210.997 99.1227 210.997C94.5547 210.997 90.8511 214.579 90.8511 218.997C90.8511 223.415 94.5547 226.997 99.1227 226.997C103.691 226.997 107.394 223.415 107.394 218.997ZM148.752 178.997C148.752 174.579 145.049 170.997 140.481 170.997C135.913 170.997 132.209 174.579 132.209 178.997C132.209 183.415 135.913 186.997 140.481 186.997C145.049 186.997 148.752 183.415 148.752 178.997Z" fill="black"/>
<path fill-rule="evenodd" clip-rule="evenodd" d="M140.481 106.997C134.77 106.997 130.141 102.52 130.141 96.9966C130.141 91.4736 134.77 86.9966 140.481 86.9966C146.191 86.9966 150.82 91.4736 150.82 96.9966C156.531 96.9966 161.16 101.474 161.16 106.997C161.16 112.52 156.531 116.997 150.82 116.997C145.11 116.997 140.481 112.52 140.481 106.997ZM99.1227 146.997C93.4122 146.997 88.7832 142.52 88.7832 136.997C88.7832 131.474 93.4122 126.997 99.1227 126.997C104.833 126.997 109.462 131.474 109.462 136.997C115.173 136.997 119.802 141.474 119.802 146.997C119.802 152.52 115.173 156.997 109.462 156.997C103.752 156.997 99.1227 152.52 99.1227 146.997ZM107.394 136.997C107.394 132.579 103.691 128.997 99.1227 128.997C94.5547 128.997 90.8511 132.579 90.8511 136.997C90.8511 141.415 94.5547 144.997 99.1227 144.997C103.691 144.997 107.394 141.415 107.394 136.997ZM148.752 96.9966C148.752 92.5786 145.049 88.9966 140.481 88.9966C135.913 88.9966 132.209 92.5786 132.209 96.9966C132.209 101.415 135.913 104.997 140.481 104.997C145.049 104.997 148.752 101.415 148.752 96.9966Z" fill="black"/>
<path fill-rule="evenodd" clip-rule="evenodd" d="M225.264 516.997C219.554 516.997 214.925 512.52 214.925 506.997C214.925 501.474 219.554 496.997 225.264 496.997C230.975 496.997 235.604 501.474 235.604 506.997C241.314 506.997 245.943 511.474 245.943 516.997C245.943 522.52 241.314 526.997 235.604 526.997C229.893 526.997 225.264 522.52 225.264 516.997ZM183.906 556.997C178.196 556.997 173.567 552.52 173.567 546.997C173.567 541.474 178.196 536.997 183.906 536.997C189.617 536.997 194.246 541.474 194.246 546.997C199.956 546.997 204.585 551.474 204.585 556.997C204.585 562.52 199.956 566.997 194.246 566.997C188.535 566.997 183.906 562.52 183.906 556.997ZM192.178 546.997C192.178 542.579 188.474 538.997 183.906 538.997C179.338 538.997 175.635 542.579 175.635 546.997C175.635 551.415 179.338 554.997 183.906 554.997C188.474 554.997 192.178 551.415 192.178 546.997ZM233.536 506.997C233.536 502.579 229.832 498.997 225.264 498.997C220.696 498.997 216.993 502.579 216.993 506.997C216.993 511.415 220.696 514.997 225.264 514.997C229.832 514.997 233.536 511.415 233.536 506.997Z" fill="black"/>
<path fill-rule="evenodd" clip-rule="evenodd" d="M225.264 434.997C219.554 434.997 214.925 430.52 214.925 424.997C214.925 419.474 219.554 414.997 225.264 414.997C230.975 414.997 235.604 419.474 235.604 424.997C241.314 424.997 245.943 429.474 245.943 434.997C245.943 440.52 241.314 444.997 235.604 444.997C229.893 444.997 225.264 440.52 225.264 434.997ZM183.906 474.997C178.196 474.997 173.567 470.52 173.567 464.997C173.567 459.474 178.196 454.997 183.906 454.997C189.617 454.997 194.246 459.474 194.246 464.997C199.956 464.997 204.585 469.474 204.585 474.997C204.585 480.52 199.956 484.997 194.246 484.997C188.535 484.997 183.906 480.52 183.906 474.997ZM192.178 464.997C192.178 460.579 188.474 456.997 183.906 456.997C179.338 456.997 175.635 460.579 175.635 464.997C175.635 469.415 179.338 472.997 183.906 472.997C188.474 472.997 192.178 469.415 192.178 464.997ZM233.536 424.997C233.536 420.579 229.832 416.997 225.264 416.997C220.696 416.997 216.993 420.579 216.993 424.997C216.993 429.415 220.696 432.997 225.264 432.997C229.832 432.997 233.536 429.415 233.536 424.997Z" fill="black"/>
<path fill-rule="evenodd" clip-rule="evenodd" d="M225.264 352.997C219.554 352.997 214.925 348.52 214.925 342.997C214.925 337.474 219.554 332.997 225.264 332.997C230.975 332.997 235.604 337.474 235.604 342.997C241.314 342.997 245.943 347.474 245.943 352.997C245.943 358.52 241.314 362.997 235.604 362.997C229.893 362.997 225.264 358.52 225.264 352.997ZM183.906 392.997C178.196 392.997 173.567 388.52 173.567 382.997C173.567 377.474 178.196 372.997 183.906 372.997C189.617 372.997 194.246 377.474 194.246 382.997C199.956 382.997 204.585 387.474 204.585 392.997C204.585 398.52 199.956 402.997 194.246 402.997C188.535 402.997 183.906 398.52 183.906 392.997ZM192.178 382.997C192.178 378.579 188.474 374.997 183.906 374.997C179.338 374.997 175.635 378.579 175.635 382.997C175.635 387.415 179.338 390.997 183.906 390.997C188.474 390.997 192.178 387.415 192.178 382.997ZM233.536 342.997C233.536 338.579 229.832 334.997 225.264 334.997C220.696 334.997 216.993 338.579 216.993 342.997C216.993 347.415 220.696 350.997 225.264 350.997C229.832 350.997 233.536 347.415 233.536 342.997Z" fill="black"/>
<path fill-rule="evenodd" clip-rule="evenodd" d="M225.264 270.997C219.554 270.997 214.925 266.52 214.925 260.997C214.925 255.474 219.554 250.997 225.264 250.997C230.975 250.997 235.604 255.474 235.604 260.997C241.314 260.997 245.943 265.474 245.943 270.997C245.943 276.52 241.314 280.997 235.604 280.997C229.893 280.997 225.264 276.52 225.264 270.997ZM183.906 310.997C178.196 310.997 173.567 306.52 173.567 300.997C173.567 295.474 178.196 290.997 183.906 290.997C189.617 290.997 194.246 295.474 194.246 300.997C199.956 300.997 204.585 305.474 204.585 310.997C204.585 316.52 199.956 320.997 194.246 320.997C188.535 320.997 183.906 316.52 183.906 310.997ZM192.178 300.997C192.178 296.579 188.474 292.997 183.906 292.997C179.338 292.997 175.635 296.579 175.635 300.997C175.635 305.415 179.338 308.997 183.906 308.997C188.474 308.997 192.178 305.415 192.178 300.997ZM233.536 260.997C233.536 256.579 229.832 252.997 225.264 252.997C220.696 252.997 216.993 256.579 216.993 260.997C216.993 265.415 220.696 268.997 225.264 268.997C229.832 268.997 233.536 265.415 233.536 260.997Z" fill="black"/>
<path fill-rule="evenodd" clip-rule="evenodd" d="M225.264 188.997C219.554 188.997 214.925 184.52 214.925 178.997C214.925 173.474 219.554 168.997 225.264 168.997C230.975 168.997 235.604 173.474 235.604 178.997C241.314 178.997 245.943 183.474 245.943 188.997C245.943 194.52 241.314 198.997 235.604 198.997C229.893 198.997 225.264 194.52 225.264 188.997ZM183.906 228.997C178.196 228.997 173.567 224.52 173.567 218.997C173.567 213.474 178.196 208.997 183.906 208.997C189.617 208.997 194.246 213.474 194.246 218.997C199.956 218.997 204.585 223.474 204.585 228.997C204.585 234.52 199.956 238.997 194.246 238.997C188.535 238.997 183.906 234.52 183.906 228.997ZM192.178 218.997C192.178 214.579 188.474 210.997 183.906 210.997C179.338 210.997 175.635 214.579 175.635 218.997C175.635 223.415 179.338 226.997 183.906 226.997C188.474 226.997 192.178 223.415 192.178 218.997ZM233.536 178.997C233.536 174.579 229.832 170.997 225.264 170.997C220.696 170.997 216.993 174.579 216.993 178.997C216.993 183.415 220.696 186.997 225.264 186.997C229.832 186.997 233.536 183.415 233.536 178.997Z" fill="black"/>
<path fill-rule="evenodd" clip-rule="evenodd" d="M225.264 106.997C219.554 106.997 214.925 102.52 214.925 96.9966C214.925 91.4736 219.554 86.9966 225.264 86.9966C230.975 86.9966 235.604 91.4736 235.604 96.9966C241.314 96.9966 245.943 101.474 245.943 106.997C245.943 112.52 241.314 116.997 235.604 116.997C229.893 116.997 225.264 112.52 225.264 106.997ZM183.906 146.997C178.196 146.997 173.567 142.52 173.567 136.997C173.567 131.474 178.196 126.997 183.906 126.997C189.617 126.997 194.246 131.474 194.246 136.997C199.956 136.997 204.585 141.474 204.585 146.997C204.585 152.52 199.956 156.997 194.246 156.997C188.535 156.997 183.906 152.52 183.906 146.997ZM192.178 136.997C192.178 132.579 188.474 128.997 183.906 128.997C179.338 128.997 175.635 132.579 175.635 136.997C175.635 141.415 179.338 144.997 183.906 144.997C188.474 144.997 192.178 141.415 192.178 136.997ZM233.536 96.9966C233.536 92.5786 229.832 88.9966 225.264 88.9966C220.696 88.9966 216.993 92.5786 216.993 96.9966C216.993 101.415 220.696 104.997 225.264 104.997C229.832 104.997 233.536 101.415 233.536 96.9966Z" fill="black"/>
<path fill-rule="evenodd" clip-rule="evenodd" d="M310.049 516.997C304.338 516.997 299.709 512.52 299.709 506.997C299.709 501.474 304.338 496.997 310.049 496.997C315.759 496.997 320.388 501.474 320.388 506.997C326.099 506.997 330.728 511.474 330.728 516.997C330.728 522.52 326.099 526.997 320.388 526.997C314.678 526.997 310.049 522.52 310.049 516.997ZM268.691 556.997C262.98 556.997 258.351 552.52 258.351 546.997C258.351 541.474 262.98 536.997 268.691 536.997C274.401 536.997 279.03 541.474 279.03 546.997C284.741 546.997 289.37 551.474 289.37 556.997C289.37 562.52 284.741 566.997 279.03 566.997C273.32 566.997 268.691 562.52 268.691 556.997ZM276.962 546.997C276.962 542.579 273.259 538.997 268.691 538.997C264.123 538.997 260.419 542.579 260.419 546.997C260.419 551.415 264.123 554.997 268.691 554.997C273.259 554.997 276.962 551.415 276.962 546.997ZM318.32 506.997C318.32 502.579 314.617 498.997 310.049 498.997C305.481 498.997 301.777 502.579 301.777 506.997C301.777 511.415 305.481 514.997 310.049 514.997C314.617 514.997 318.32 511.415 318.32 506.997Z" fill="black"/>
<path fill-rule="evenodd" clip-rule="evenodd" d="M310.049 434.997C304.338 434.997 299.709 430.52 299.709 424.997C299.709 419.474 304.338 414.997 310.049 414.997C315.759 414.997 320.388 419.474 320.388 424.997C326.099 424.997 330.728 429.474 330.728 434.997C330.728 440.52 326.099 444.997 320.388 444.997C314.678 444.997 310.049 440.52 310.049 434.997ZM268.691 474.997C262.98 474.997 258.351 470.52 258.351 464.997C258.351 459.474 262.98 454.997 268.691 454.997C274.401 454.997 279.03 459.474 279.03 464.997C284.741 464.997 289.37 469.474 289.37 474.997C289.37 480.52 284.741 484.997 279.03 484.997C273.32 484.997 268.691 480.52 268.691 474.997ZM276.962 464.997C276.962 460.579 273.259 456.997 268.691 456.997C264.123 456.997 260.419 460.579 260.419 464.997C260.419 469.415 264.123 472.997 268.691 472.997C273.259 472.997 276.962 469.415 276.962 464.997ZM318.32 424.997C318.32 420.579 314.617 416.997 310.049 416.997C305.481 416.997 301.777 420.579 301.777 424.997C301.777 429.415 305.481 432.997 310.049 432.997C314.617 432.997 318.32 429.415 318.32 424.997Z" fill="black"/>
<path fill-rule="evenodd" clip-rule="evenodd" d="M310.049 352.997C304.338 352.997 299.709 348.52 299.709 342.997C299.709 337.474 304.338 332.997 310.049 332.997C315.759 332.997 320.388 337.474 320.388 342.997C326.099 342.997 330.728 347.474 330.728 352.997C330.728 358.52 326.099 362.997 320.388 362.997C314.678 362.997 310.049 358.52 310.049 352.997ZM268.691 392.997C262.98 392.997 258.351 388.52 258.351 382.997C258.351 377.474 262.98 372.997 268.691 372.997C274.401 372.997 279.03 377.474 279.03 382.997C284.741 382.997 289.37 387.474 289.37 392.997C289.37 398.52 284.741 402.997 279.03 402.997C273.32 402.997 268.691 398.52 268.691 392.997ZM276.962 382.997C276.962 378.579 273.259 374.997 268.691 374.997C264.123 374.997 260.419 378.579 260.419 382.997C260.419 387.415 264.123 390.997 268.691 390.997C273.259 390.997 276.962 387.415 276.962 382.997ZM318.32 342.997C318.32 338.579 314.617 334.997 310.049 334.997C305.481 334.997 301.777 338.579 301.777 342.997C301.777 347.415 305.481 350.997 310.049 350.997C314.617 350.997 318.32 347.415 318.32 342.997Z" fill="black"/>
<path fill-rule="evenodd" clip-rule="evenodd" d="M310.049 270.997C304.338 270.997 299.709 266.52 299.709 260.997C299.709 255.474 304.338 250.997 310.049 250.997C315.759 250.997 320.388 255.474 320.388 260.997C326.099 260.997 330.728 265.474 330.728 270.997C330.728 276.52 326.099 280.997 320.388 280.997C314.678 280.997 310.049 276.52 310.049 270.997ZM268.691 310.997C262.98 310.997 258.351 306.52 258.351 300.997C258.351 295.474 262.98 290.997 268.691 290.997C274.401 290.997 279.03 295.474 279.03 300.997C284.741 300.997 289.37 305.474 289.37 310.997C289.37 316.52 284.741 320.997 279.03 320.997C273.32 320.997 268.691 316.52 268.691 310.997ZM276.962 300.997C276.962 296.579 273.259 292.997 268.691 292.997C264.123 292.997 260.419 296.579 260.419 300.997C260.419 305.415 264.123 308.997 268.691 308.997C273.259 308.997 276.962 305.415 276.962 300.997ZM318.32 260.997C318.32 256.579 314.617 252.997 310.049 252.997C305.481 252.997 301.777 256.579 301.777 260.997C301.777 265.415 305.481 268.997 310.049 268.997C314.617 268.997 318.32 265.415 318.32 260.997Z" fill="black"/>
<path fill-rule="evenodd" clip-rule="evenodd" d="M310.049 188.997C304.338 188.997 299.709 184.52 299.709 178.997C299.709 173.474 304.338 168.997 310.049 168.997C315.759 168.997 320.388 173.474 320.388 178.997C326.099 178.997 330.728 183.474 330.728 188.997C330.728 194.52 326.099 198.997 320.388 198.997C314.678 198.997 310.049 194.52 310.049 188.997ZM268.691 228.997C262.98 228.997 258.351 224.52 258.351 218.997C258.351 213.474 262.98 208.997 268.691 208.997C274.401 208.997 279.03 213.474 279.03 218.997C284.741 218.997 289.37 223.474 289.37 228.997C289.37 234.52 284.741 238.997 279.03 238.997C273.32 238.997 268.691 234.52 268.691 228.997ZM276.962 218.997C276.962 214.579 273.259 210.997 268.691 210.997C264.123 210.997 260.419 214.579 260.419 218.997C260.419 223.415 264.123 226.997 268.691 226.997C273.259 226.997 276.962 223.415 276.962 218.997ZM318.32 178.997C318.32 174.579 314.617 170.997 310.049 170.997C305.481 170.997 301.777 174.579 301.777 178.997C301.777 183.415 305.481 186.997 310.049 186.997C314.617 186.997 318.32 183.415 318.32 178.997Z" fill="black"/>
<path fill-rule="evenodd" clip-rule="evenodd" d="M310.049 106.997C304.338 106.997 299.709 102.52 299.709 96.9966C299.709 91.4736 304.338 86.9966 310.049 86.9966C315.759 86.9966 320.388 91.4736 320.388 96.9966C326.099 96.9966 330.728 101.474 330.728 106.997C330.728 112.52 326.099 116.997 320.388 116.997C314.678 116.997 310.049 112.52 310.049 106.997ZM268.691 146.997C262.98 146.997 258.351 142.52 258.351 136.997C258.351 131.474 262.98 126.997 268.691 126.997C274.401 126.997 279.03 131.474 279.03 136.997C284.741 136.997 289.37 141.474 289.37 146.997C289.37 152.52 284.741 156.997 279.03 156.997C273.32 156.997 268.691 152.52 268.691 146.997ZM276.962 136.997C276.962 132.579 273.259 128.997 268.691 128.997C264.123 128.997 260.419 132.579 260.419 136.997C260.419 141.415 264.123 144.997 268.691 144.997C273.259 144.997 276.962 141.415 276.962 136.997ZM318.32 96.9966C318.32 92.5786 314.617 88.9966 310.049 88.9966C305.481 88.9966 301.777 92.5786 301.777 96.9966C301.777 101.415 305.481 104.997 310.049 104.997C314.617 104.997 318.32 101.415 318.32 96.9966Z" fill="black"/>
<path fill-rule="evenodd" clip-rule="evenodd" d="M55.6966 24.9966C49.986 24.9966 45.3571 20.5196 45.3571 14.9966C45.3571 9.47358 49.986 4.99658 55.6966 4.99658C61.4071 4.99658 66.0361 9.47358 66.0361 14.9966C71.7466 14.9966 76.3756 19.4736 76.3756 24.9966C76.3756 30.5196 71.7466 34.9966 66.0361 34.9966C60.3256 34.9966 55.6966 30.5196 55.6966 24.9966ZM14.3385 64.9966C8.62802 64.9966 3.99902 60.5196 3.99902 54.9966C3.99902 49.4736 8.62802 44.9966 14.3385 44.9966C20.049 44.9966 24.678 49.4736 24.678 54.9966C30.3885 54.9966 35.0175 59.4736 35.0175 64.9966C35.0175 70.5196 30.3885 74.9966 24.678 74.9966C18.9675 74.9966 14.3385 70.5196 14.3385 64.9966ZM22.6101 54.9966C22.6101 50.5786 18.9065 46.9966 14.3385 46.9966C9.77054 46.9966 6.06692 50.5786 6.06692 54.9966C6.06692 59.4146 9.77054 62.9966 14.3385 62.9966C18.9065 62.9966 22.6101 59.4146 22.6101 54.9966ZM63.9682 14.9966C63.9682 10.5786 60.2646 6.99658 55.6966 6.99658C51.1286 6.99658 47.425 10.5786 47.425 14.9966C47.425 19.4146 51.1286 22.9966 55.6966 22.9966C60.2646 22.9966 63.9682 19.4146 63.9682 14.9966Z" fill="black"/>
<path fill-rule="evenodd" clip-rule="evenodd" d="M140.481 24.9966C134.77 24.9966 130.141 20.5196 130.141 14.9966C130.141 9.47358 134.77 4.99658 140.481 4.99658C146.191 4.99658 150.82 9.47358 150.82 14.9966C156.531 14.9966 161.16 19.4736 161.16 24.9966C161.16 30.5196 156.531 34.9966 150.82 34.9966C145.11 34.9966 140.481 30.5196 140.481 24.9966ZM99.1227 64.9966C93.4122 64.9966 88.7832 60.5196 88.7832 54.9966C88.7832 49.4736 93.4122 44.9966 99.1227 44.9966C104.833 44.9966 109.462 49.4736 109.462 54.9966C115.173 54.9966 119.802 59.4736 119.802 64.9966C119.802 70.5196 115.173 74.9966 109.462 74.9966C103.752 74.9966 99.1227 70.5196 99.1227 64.9966ZM107.394 54.9966C107.394 50.5786 103.691 46.9966 99.1227 46.9966C94.5547 46.9966 90.8511 50.5786 90.8511 54.9966C90.8511 59.4146 94.5547 62.9966 99.1227 62.9966C103.691 62.9966 107.394 59.4146 107.394 54.9966ZM148.752 14.9966C148.752 10.5786 145.049 6.99658 140.481 6.99658C135.913 6.99658 132.209 10.5786 132.209 14.9966C132.209 19.4146 135.913 22.9966 140.481 22.9966C145.049 22.9966 148.752 19.4146 148.752 14.9966Z" fill="black"/>
<path fill-rule="evenodd" clip-rule="evenodd" d="M225.264 24.9966C219.554 24.9966 214.925 20.5196 214.925 14.9966C214.925 9.47358 219.554 4.99658 225.264 4.99658C230.975 4.99658 235.604 9.47358 235.604 14.9966C241.314 14.9966 245.943 19.4736 245.943 24.9966C245.943 30.5196 241.314 34.9966 235.604 34.9966C229.893 34.9966 225.264 30.5196 225.264 24.9966ZM183.906 64.9966C178.196 64.9966 173.567 60.5196 173.567 54.9966C173.567 49.4736 178.196 44.9966 183.906 44.9966C189.617 44.9966 194.246 49.4736 194.246 54.9966C199.956 54.9966 204.585 59.4736 204.585 64.9966C204.585 70.5196 199.956 74.9966 194.246 74.9966C188.535 74.9966 183.906 70.5196 183.906 64.9966ZM192.178 54.9966C192.178 50.5786 188.474 46.9966 183.906 46.9966C179.338 46.9966 175.635 50.5786 175.635 54.9966C175.635 59.4146 179.338 62.9966 183.906 62.9966C188.474 62.9966 192.178 59.4146 192.178 54.9966ZM233.536 14.9966C233.536 10.5786 229.832 6.99658 225.264 6.99658C220.696 6.99658 216.993 10.5786 216.993 14.9966C216.993 19.4146 220.696 22.9966 225.264 22.9966C229.832 22.9966 233.536 19.4146 233.536 14.9966Z" fill="black"/>
<path fill-rule="evenodd" clip-rule="evenodd" d="M310.049 24.9966C304.338 24.9966 299.709 20.5196 299.709 14.9966C299.709 9.47358 304.338 4.99658 310.049 4.99658C315.759 4.99658 320.388 9.47358 320.388 14.9966C326.099 14.9966 330.728 19.4736 330.728 24.9966C330.728 30.5196 326.099 34.9966 320.388 34.9966C314.678 34.9966 310.049 30.5196 310.049 24.9966ZM268.691 64.9966C262.98 64.9966 258.351 60.5196 258.351 54.9966C258.351 49.4736 262.98 44.9966 268.691 44.9966C274.401 44.9966 279.03 49.4736 279.03 54.9966C284.741 54.9966 289.37 59.4736 289.37 64.9966C289.37 70.5196 284.741 74.9966 279.03 74.9966C273.32 74.9966 268.691 70.5196 268.691 64.9966ZM276.962 54.9966C276.962 50.5786 273.259 46.9966 268.691 46.9966C264.123 46.9966 260.419 50.5786 260.419 54.9966C260.419 59.4146 264.123 62.9966 268.691 62.9966C273.259 62.9966 276.962 59.4146 276.962 54.9966ZM318.32 14.9966C318.32 10.5786 314.617 6.99658 310.049 6.99658C305.481 6.99658 301.777 10.5786 301.777 14.9966C301.777 19.4146 305.481 22.9966 310.049 22.9966C314.617 22.9966 318.32 19.4146 318.32 14.9966Z" fill="black"/>
</g>
<defs>
<filter id="filter0_d_495_5897" x="-0.000976562" y="0.996582" width="343" height="574" filterUnits="userSpaceOnUse" color-interpolation-filters="sRGB">
<feFlood flood-opacity="0" result="BackgroundImageFix"/>
<feColorMatrix in="SourceAlpha" type="matrix" values="0 0 0 0 0 0 0 0 0 0 0 0 0 0 0 0 0 0 127 0" result="hardAlpha"/>
<feOffset dy="4"/>
<feGaussianBlur stdDeviation="2"/>
<feComposite in2="hardAlpha" operator="out"/>
<feColorMatrix type="matrix" values="0 0 0 0 0 0 0 0 0 0 0 0 0 0 0 0 0 0 0.25 0"/>
<feBlend mode="normal" in2="BackgroundImageFix" result="effect1_dropShadow_495_5897"/>
<feBlend mode="normal" in="SourceGraphic" in2="effect1_dropShadow_495_5897" result="shape"/>
</filter>
<clipPath id="clip0_495_5897">
<rect width="566" height="335" fill="white" transform="matrix(0 -1 1 0 3.99902 566.997)"/>
</clipPath>
</defs>
</svg>
