<svg width="63" height="64" viewBox="0 0 63 64" fill="none" xmlns="http://www.w3.org/2000/svg">
<path d="M48.2344 54.9216V45.9471H54.1406V56.9159C54.1406 57.9737 53.7258 58.9883 52.9874 59.7363C52.2489 60.4843 51.2474 60.9045 50.2031 60.9045H48.2344V54.9216Z" fill="#F6BB92"/>
<path d="M52.8789 39.9643L53.8269 37.6006L54.6677 35.5042C55.1181 34.377 55.2393 33.1341 55.0157 31.934C54.7921 30.734 54.2339 29.6313 53.4123 28.7665C52.3157 27.6122 51.6997 26.0468 51.6998 24.4145V18.6915H27.0505V24.4149C27.0505 26.0472 26.4345 27.6127 25.3379 28.767C24.5163 29.6316 23.9581 30.7342 23.7344 31.9342C23.5107 33.1341 23.6317 34.377 24.082 35.5042L24.972 37.7321L52.8789 39.9643Z" fill="#834B10"/>
<path d="M54.1406 41.044C54.1406 39.6277 53.6447 38.2574 52.741 37.1768C51.8373 36.0961 50.5844 35.3753 49.2053 35.1425L48.2344 34.9785L43.1507 34.1202L39.375 37.97L35.5596 34.0906L28.5469 34.9785V60.9047H48.2344V52.9274C49.1248 52.025 49.687 50.8436 49.8292 49.5758C49.9713 48.3081 49.6851 47.029 49.0172 45.9473H54.1406V41.044Z" fill="#5D62B5"/>
<path d="M52.5 24.0097H26.25V16.5016C26.25 12.851 27.6328 9.34991 30.0942 6.76853C32.5556 4.18714 35.894 2.73694 39.375 2.73694C42.856 2.73694 46.1944 4.18714 48.6558 6.76853C51.1172 9.34991 52.5 12.851 52.5 16.5016V24.0097Z" fill="#834B10"/>
<path d="M47.25 17.0296V16.0324L46.2656 11.0466H32.4844L31.5 16.0324V17.0296C30.7168 17.0296 29.9656 17.3448 29.4118 17.9058C28.858 18.4668 28.5469 19.2277 28.5469 20.0211C28.5469 20.8145 28.858 24.7782 29.4118 25.3392C29.9656 25.9003 29.6863 25.176 30.4695 25.176L30.1875 25.3392H31.5C31.5 27.1905 33.2103 27.6364 34.5026 28.9454C35.7948 30.2544 37.5475 30.9898 39.375 30.9898C41.2025 30.9898 42.9552 30.2544 44.2474 28.9454C45.5397 27.6364 46.2656 27.0272 46.2656 25.176L47.25 25.3392H48.5625C49.3457 25.3392 48.7844 25.737 49.3382 25.176C49.892 24.615 50.2031 20.8145 50.2031 20.0211C50.2031 19.2277 49.892 18.4668 49.3382 17.9058C48.7844 17.3448 48.0332 17.0296 47.25 17.0296Z" fill="#F6BB92"/>
<path d="M38.3906 41.7779V60.9046H16.3652C17.0995 59.7468 17.9542 58.672 18.9148 57.6988L18.9874 57.6252C20.7474 55.8453 22.1554 53.7409 23.1353 51.4254C23.5216 50.513 23.9068 49.6006 24.1873 48.9387C24.442 48.3367 24.6094 47.9416 24.6094 47.9416H21.7768C20.8989 47.9408 20.0464 47.6432 19.3545 47.0958C18.6626 46.5485 18.1709 45.7828 17.9575 44.9202L17.4727 42.9558L17.3459 42.4422C17.2734 42.1482 17.2679 41.8414 17.33 41.5449C17.392 41.2485 17.52 40.9702 17.7041 40.7314C17.8881 40.4925 18.1236 40.2993 18.3924 40.1664C18.6612 40.0335 18.9565 39.9643 19.2556 39.9643H22.6406C23.2753 38.0336 24.5712 36.3968 26.2939 35.3499L26.7246 35.0894C27.8317 34.4169 29.0883 34.0379 30.3783 33.9876C31.6683 33.9372 32.95 34.2172 34.1049 34.8015L34.148 34.8239C35.4228 35.4697 36.495 36.4623 37.2443 37.6905C37.9937 38.9187 38.3906 40.334 38.3906 41.7779Z" fill="#4B4B4B"/>
<path d="M38.3906 41.9586V44.788C38.3906 45.4158 38.1956 46.0278 37.8332 46.5371C37.4707 47.0465 36.9593 47.4274 36.3713 47.6259C35.7652 47.8306 35.1098 47.8306 34.5037 47.6259C33.9157 47.4274 33.4043 47.0465 33.0418 46.5371C32.6794 46.0278 32.4844 45.4158 32.4844 44.788V39.9642H36.4219L38.3906 41.9586Z" fill="black"/>
<path d="M29.2432 46.6527L27.2745 48.647C27.0897 48.8339 26.8392 48.9388 26.578 48.9387H24.1872C24.442 48.3366 24.6093 47.9415 24.6093 47.9415H21.7768C20.8181 47.9424 19.8924 47.5877 19.1743 46.9443H26.1708L27.8504 45.2417C28.0351 45.0546 28.2856 44.9495 28.5468 44.9495C28.808 44.9495 29.0585 45.0546 29.2432 45.2417C29.428 45.4288 29.5317 45.6826 29.5317 45.9472C29.5317 46.2118 29.428 46.4656 29.2432 46.6527V46.6527Z" fill="black"/>
<path d="M20.6718 39.9642V41.1694C20.6718 41.6432 20.4861 42.0975 20.1554 42.4325C19.8247 42.7675 19.3761 42.9557 18.9085 42.9557H17.4726L17.3459 42.4422C17.2733 42.1482 17.2679 41.8413 17.3299 41.5449C17.392 41.2484 17.5199 40.9702 17.704 40.7313C17.8881 40.4924 18.1235 40.2992 18.3924 40.1663C18.6612 40.0334 18.9564 39.9643 19.2556 39.9642H20.6718Z" fill="black"/>
<path d="M23.7253 58.4416C23.5426 58.4415 23.3635 58.3898 23.2081 58.2924C23.0527 58.195 22.9271 58.0557 22.8455 57.8901C22.7638 57.7244 22.7292 57.5391 22.7457 57.3547C22.7621 57.1703 22.8289 56.9942 22.9386 56.8461C24.1127 55.2613 25.0264 53.4949 25.6444 51.6149C25.6843 51.4895 25.7484 51.3734 25.8329 51.2732C25.9174 51.173 26.0207 51.0908 26.1367 51.0313C26.2528 50.9718 26.3794 50.9362 26.5091 50.9265C26.6388 50.9169 26.7692 50.9333 26.8926 50.975C27.016 51.0167 27.13 51.0827 27.2281 51.1693C27.3261 51.2559 27.4063 51.3613 27.4639 51.4795C27.5215 51.5976 27.5554 51.7262 27.5636 51.8577C27.5719 51.9892 27.5544 52.121 27.512 52.2456C26.8271 54.3289 25.8146 56.2865 24.5136 58.0427C24.4219 58.1668 24.3029 58.2674 24.1661 58.3367C24.0292 58.4059 23.8783 58.4418 23.7253 58.4416V58.4416Z" fill="black"/>
<path d="M31.5 17.0296C32.4254 16.7171 33.2725 16.2042 33.9823 15.5263C34.6921 14.8485 35.2474 14.022 35.6098 13.1046L36.4219 11.0466L31.5 10.0494V17.0296Z" fill="#834B10"/>
<path d="M36.4219 11.0466L36.5372 11.2217C37.7129 13.0083 39.3059 14.4732 41.1747 15.4863C43.0435 16.4995 45.1304 17.0296 47.25 17.0296V10.0494L36.4219 11.0466Z" fill="#834B10"/>
<path d="M35.3555 21.1844C36.035 21.1844 36.5859 20.6264 36.5859 19.938C36.5859 19.2496 36.035 18.6915 35.3555 18.6915C34.6759 18.6915 34.125 19.2496 34.125 19.938C34.125 20.6264 34.6759 21.1844 35.3555 21.1844Z" fill="black"/>
<path d="M40.6055 21.1844C41.285 21.1844 41.8359 20.6264 41.8359 19.938C41.8359 19.2496 41.285 18.6915 40.6055 18.6915C39.9259 18.6915 39.375 19.2496 39.375 19.938C39.375 20.6264 39.9259 21.1844 40.6055 21.1844Z" fill="black"/>
<path d="M45.2812 42.9558C45.0202 42.9558 44.7698 42.8507 44.5852 42.6637C44.4006 42.4767 44.2969 42.2231 44.2969 41.9586V34.9785C44.2969 34.714 44.4006 34.4604 44.5852 34.2734C44.7698 34.0864 45.0202 33.9813 45.2812 33.9813C45.5423 33.9813 45.7927 34.0864 45.9773 34.2734C46.1619 34.4604 46.2656 34.714 46.2656 34.9785V41.9586C46.2656 42.2231 46.1619 42.4767 45.9773 42.6637C45.7927 42.8507 45.5423 42.9558 45.2812 42.9558Z" fill="#C3C3C3"/>
<path d="M45.2812 47.9416C46.9122 47.9416 48.2344 46.6022 48.2344 44.9501C48.2344 43.2979 46.9122 41.9586 45.2812 41.9586C43.6503 41.9586 42.3281 43.2979 42.3281 44.9501C42.3281 46.6022 43.6503 47.9416 45.2812 47.9416Z" fill="#E4E4E2"/>
<path d="M45.2812 45.9472C45.8249 45.9472 46.2656 45.5008 46.2656 44.95C46.2656 44.3993 45.8249 43.9529 45.2812 43.9529C44.7376 43.9529 44.2969 44.3993 44.2969 44.95C44.2969 45.5008 44.7376 45.9472 45.2812 45.9472Z" fill="#C3C3C3"/>
<path d="M49.2188 60.9046H34.4531C33.6699 60.9046 32.9188 60.5895 32.365 60.0285C31.8111 59.4674 31.5 58.7066 31.5 57.9132C31.5 57.1198 31.8111 56.3589 32.365 55.7979C32.9188 55.2369 33.6699 54.9217 34.4531 54.9217H35.4375C35.4375 54.3928 35.6449 53.8855 36.0141 53.5115C36.3833 53.1375 36.8841 52.9274 37.4062 52.9274H37.5752C38.0973 52.9274 38.598 53.1375 38.9672 53.5115L40.3594 54.9217H49.2188V60.9046Z" fill="#F6BB92"/>
<path d="M16.4745 56.2755C16.329 56.6019 16.2548 56.9562 16.2569 57.3143C16.259 57.6723 16.3374 58.0257 16.4867 58.3503C16.636 58.6748 16.8527 58.9629 17.122 59.1949C17.3913 59.4268 17.7069 59.5971 18.0471 59.6942L21.8362 60.7786C22.5899 60.9943 23.3973 60.898 24.0809 60.5107C24.7644 60.1234 25.2681 59.4769 25.4811 58.7135C25.694 57.95 25.5989 57.1322 25.2166 56.4398C24.8342 55.7475 24.1961 55.2373 23.4425 55.0215L22.495 54.7504C22.5653 54.4984 22.586 54.2348 22.5557 53.9747C22.5255 53.7146 22.445 53.463 22.3188 53.2344C22.1926 53.0059 22.0232 52.8047 21.8202 52.6424C21.6173 52.4802 21.3848 52.36 21.136 52.2888L20.9734 52.2423C20.7246 52.1711 20.4644 52.1502 20.2076 52.1808C19.9509 52.2115 19.7026 52.293 19.4769 52.4209C18.361 53.0532 17.4747 54.0316 16.9484 55.2121L16.4745 56.2755Z" fill="#F6BB92"/>
<path d="M11.4496 24.0096C12.3914 24.0097 13.2946 24.4493 13.9606 25.2316L15.7498 27.3336L17.5389 25.2316C18.2049 24.4493 19.1081 24.0098 20.0499 24.0096C20.8419 24.0096 21.6113 24.3207 22.2356 24.8933C22.8598 25.466 23.3033 26.2674 23.4953 27.1701C23.7126 28.1908 23.6558 29.2654 23.3329 30.2467C23.01 31.228 22.4367 32.068 21.6916 32.6515L15.75 37.3051L9.8084 32.6515C9.06327 32.068 8.48997 31.228 8.16706 30.2467C7.84416 29.2654 7.78745 28.1908 8.0047 27.1701C8.19674 26.2675 8.64009 25.4662 9.26427 24.8935C9.88845 24.3209 10.6576 24.0098 11.4496 24.0096V24.0096Z" fill="#5D62B5"/>
<path d="M31.5 17.0295H32.4844V23.0125H31.5V17.0295Z" fill="#EEB58E"/>
<path d="M46.2656 17.0295H47.25V23.0125H46.2656V17.0295Z" fill="#EEB58E"/>
<path d="M35.5596 34.0905L39.375 37.9699L43.1507 34.1202C42.9209 34.0814 42.712 33.9612 42.5614 33.7811C42.4108 33.601 42.3281 33.3726 42.3281 33.1366V29.9927H36.4219V33.1011C36.4219 33.3441 36.3342 33.5788 36.1755 33.761C36.0167 33.9432 35.7976 34.0604 35.5596 34.0905V34.0905Z" fill="#F6BB92"/>
<path d="M39.375 31.987C36.5902 31.987 33.9195 31.0064 31.9504 29.261C29.9812 27.5157 28.875 25.1485 28.875 22.6801V21.3506H49.875V22.6801C49.875 25.1485 48.7688 27.5157 46.7996 29.261C44.8305 31.0064 42.1598 31.987 39.375 31.987Z" fill="#5D62B5"/>
<path d="M27.5625 41.9585C28.1062 41.9585 28.5469 41.5121 28.5469 40.9614C28.5469 40.4107 28.1062 39.9642 27.5625 39.9642C27.0188 39.9642 26.5781 40.4107 26.5781 40.9614C26.5781 41.5121 27.0188 41.9585 27.5625 41.9585Z" fill="black"/>
</svg>
