<svg width="63" height="64" viewBox="0 0 63 64" fill="none" xmlns="http://www.w3.org/2000/svg">
<path d="M60.0469 24.3475V25.6313C60.0469 29.668 59.06 33.6418 57.1744 37.1979C55.2888 40.754 52.5632 43.7818 49.2409 46.0108L38.3906 53.29L34.4531 55.9312L31.5 57.9131L30.5156 57.26L27.5625 55.2993L26.1475 54.3607L15.5371 47.3195L14.143 46.3947L13.8588 46.2052C10.5087 43.9818 7.75774 40.9487 5.85386 37.3793C3.94998 33.81 2.9531 29.8167 2.95313 25.7597V22.8767C2.9532 19.7094 3.84488 16.6079 5.52357 13.9359C6.84733 11.828 8.67475 10.0926 10.8366 8.89035C12.9984 7.68809 15.4248 7.05784 17.891 7.05798H18.2638C20.5397 7.05809 22.7843 7.59495 24.8198 8.62605C26.8554 9.65715 28.626 11.1542 29.9914 12.9986L31.5 15.0353L33.0086 12.9986C34.4598 11.0382 36.3674 9.47218 38.5612 8.43999C40.755 7.40781 43.1669 6.94158 45.5818 7.08288C47.9966 7.22419 50.3395 7.96863 52.4014 9.24984C54.4632 10.531 56.1801 12.3092 57.3989 14.4257C59.1324 17.4375 60.0461 20.8612 60.0469 24.3475V24.3475Z" fill="#5D62B5"/>
<path d="M34.4531 47.4429V55.9188V55.9312L38.3906 53.29V44.3268L34.4531 47.4429Z" fill="#EA9D2D"/>
<path d="M44.2969 21.0182V23.5111C44.297 23.8385 44.2334 24.1627 44.1097 24.4652C43.9861 24.7677 43.8048 25.0426 43.5763 25.2741C43.3477 25.5056 43.0764 25.6892 42.7778 25.8144C42.4792 25.9397 42.1591 26.0041 41.8359 26.004H39.375V31.987L39.0147 32.9856L39.6383 33.9813L40.1182 37.6259C40.2362 38.518 40.2733 39.4192 40.2289 40.3182C40.1451 42.027 39.4978 43.658 38.3906 44.95L34.4531 47.9415V55.9312L31.5 57.9131L30.5156 57.26V49.9358L26.1474 54.3607L15.5371 47.3195L23.625 35.9756L25.5937 32.9841L28.1716 30.3728L29.475 30.0496L29.5312 28.9955V26.2184C29.5314 23.5269 30.587 20.9457 32.4659 19.0426C33.1084 18.3924 33.9793 18.027 34.8875 18.0267H37.0186C37.8974 18.0269 38.7401 18.3807 39.3615 19.0102L41.3437 21.0182H44.2969Z" fill="#FBB540"/>
<path d="M35.4375 21.0182H37.4062V23.0125H35.4375V21.0182Z" fill="#985713"/>
<path d="M39.6387 33.9813H38.2187C36.2375 33.9787 34.2838 33.5116 32.5105 32.6165L28.1719 30.3729L29.5315 28.9956V28.8373L33.3989 30.8366C34.8963 31.5918 36.546 31.9856 38.2187 31.987H39.3753L39.6387 33.9813Z" fill="#5D62B5"/>
<path d="M31.745 29.9926H29.5312V27.9983H31.745C31.941 27.998 32.129 27.919 32.2676 27.7786C32.4062 27.6382 32.4842 27.4478 32.4844 27.2492V24.0096H34.4531V27.2492C34.4523 27.9765 34.1667 28.6738 33.659 29.1881C33.1513 29.7024 32.463 29.9917 31.745 29.9926V29.9926Z" fill="#985713"/>
<path d="M31.5001 35.9756V37.9699C31.4999 38.7632 31.1887 39.524 30.6349 40.085C30.0811 40.646 29.3301 40.9612 28.5469 40.9614V44.5886C28.5473 45.4746 28.2883 46.3409 27.8025 47.0777L26.5782 48.9387V51.9301L26.9362 52.6556L27.234 53.2601L27.5626 53.9245V55.2993L26.1475 54.3607L15.5372 47.3195L14.1431 46.3947L19.6876 37.9699V34.8488C19.6876 34.7728 19.6888 34.6955 19.6912 34.6195C19.7536 33.1611 20.2998 31.7668 21.2416 30.662L22.6407 28.9955L23.6251 32.9841H25.9821C26.4683 32.9841 26.9468 33.1058 27.3754 33.3382C27.8039 33.5707 28.1692 33.9067 28.4387 34.3166C28.7749 34.8268 29.2302 35.2452 29.7642 35.5346C30.2982 35.824 30.8944 35.9755 31.5001 35.9756Z" fill="#E4E4E2"/>
<path d="M24.6094 35.9756H26.5781V37.9699H24.6094V35.9756Z" fill="#29C3BE"/>
</svg>
