<svg width="63" height="64" viewBox="0 0 63 64" fill="none" xmlns="http://www.w3.org/2000/svg">
<path d="M58.3836 5.39612H4.61638C3.51657 5.39612 2.625 6.30318 2.625 7.42209V45.9156C2.625 47.0345 3.51657 47.9416 4.61638 47.9416H58.3836C59.4834 47.9416 60.375 47.0345 60.375 45.9156V7.42209C60.375 6.30318 59.4834 5.39612 58.3836 5.39612Z" fill="#5D62B5"/>
<path d="M27.5625 24.6745L21.6562 30.6574C21.4803 30.5689 21.3097 30.4729 21.1444 30.3695C20.1658 29.7678 19.3449 28.9361 18.7511 27.9447C18.1574 26.9533 17.8083 25.8315 17.7335 24.6745C17.7237 24.5187 17.7188 24.3616 17.7188 24.2033V21.683H23.625L27.5625 24.6745Z" fill="#F3AF3E"/>
<path d="M25.5936 27.6659L23.1327 29.1617L21.1443 30.3695C20.1657 29.7678 19.3448 28.936 18.751 27.9447C18.1573 26.9533 17.8082 25.8315 17.7334 24.6744H22.7303L25.1088 27.1599L25.5936 27.6659Z" fill="#5B3726"/>
<path d="M45.2812 21.683V24.2033C45.2812 24.3616 45.2763 24.5187 45.2665 24.6745C45.1848 25.9317 44.7797 27.1455 44.0916 28.1951C43.4034 29.2446 42.4561 30.0936 41.3438 30.6574L35.4375 24.6745L39.375 21.683H45.2812Z" fill="#F3AF3E"/>
<path d="M45.2665 24.6744C45.1968 25.7529 44.8889 26.8017 44.3654 27.7434C43.8419 28.6851 43.1162 29.4957 42.242 30.1152L39.375 28.6631L37.4062 27.6659L37.8911 27.1599L40.2695 24.6744H45.2665Z" fill="#5B3726"/>
<path d="M42.3281 32.6517V45.6148H20.6719V32.6517C20.6719 29.7426 21.8127 26.9527 23.8434 24.8957C25.874 22.8386 28.6282 21.683 31.5 21.683C34.3718 21.683 37.126 22.8386 39.1566 24.8957C41.1873 26.9527 42.3281 29.7426 42.3281 32.6517V32.6517Z" fill="#F3AF3E"/>
<path d="M26.2686 28.7296L29.2227 27.7332L29.8448 29.6259L26.8907 30.6223L26.2686 28.7296Z" fill="#D18D28"/>
<path d="M33.1572 29.5925L33.7794 27.6998L36.7335 28.6962L36.1113 30.589L33.1572 29.5925Z" fill="#D18D28"/>
<path d="M37.6307 36.4298L36.7502 34.6461C35.9701 35.0386 33.3197 37.2161 32.4851 36.9635V34.6461H30.5164V36.9645C29.6817 37.2168 27.0303 35.0385 26.2502 34.6461L25.3696 36.4298C26.0454 36.7703 28.5374 39.0639 29.2915 39.0975C30.0455 39.1311 30.7981 39.0043 31.5007 38.7253C32.2035 39.0042 32.9561 39.1309 33.7101 39.0972C34.4641 39.0635 36.955 36.7704 37.6307 36.4298Z" fill="#744630"/>
<path d="M23.625 42.6233C23.6256 42.9734 23.5348 43.3174 23.3617 43.6205H20.6719V39.6318C21.4551 39.6318 22.2062 39.947 22.76 40.508C23.3139 41.069 23.625 41.8299 23.625 42.6233Z" fill="#D18D28"/>
<path d="M42.3281 39.6318V43.6205H39.6383C39.4652 43.3174 39.3744 42.9734 39.375 42.6233C39.375 41.8299 39.6861 41.069 40.24 40.508C40.7938 39.947 41.5449 39.6318 42.3281 39.6318Z" fill="#D18D28"/>
<path d="M20.6719 44.6176H18.7031C18.181 44.6176 17.6802 44.4075 17.311 44.0335C16.9418 43.6595 16.7344 43.1522 16.7344 42.6233C16.7344 41.8299 17.0455 41.069 17.5993 40.508C18.1531 39.947 18.9043 39.6318 19.6875 39.6318C20.4707 39.6318 21.2219 39.947 21.7757 40.508C22.3295 41.069 22.6406 41.8299 22.6406 42.6233C22.6406 43.1522 22.4332 43.6595 22.064 44.0335C21.6948 44.4075 21.194 44.6176 20.6719 44.6176Z" fill="#F3AF3E"/>
<path d="M44.2969 44.6176H42.3281C41.806 44.6176 41.3052 44.4075 40.936 44.0335C40.5668 43.6595 40.3594 43.1522 40.3594 42.6233C40.3594 41.8299 40.6705 41.069 41.2243 40.508C41.7781 39.947 42.5293 39.6318 43.3125 39.6318C44.0957 39.6318 44.8469 39.947 45.4007 40.508C45.9545 41.069 46.2656 41.8299 46.2656 42.6233C46.2656 43.1522 46.0582 43.6595 45.689 44.0335C45.3198 44.4075 44.819 44.6176 44.2969 44.6176Z" fill="#F3AF3E"/>
<path d="M31.5 35.6432C30.9779 35.6432 30.4771 35.4331 30.1079 35.0591C29.7387 34.685 29.5312 34.1778 29.5312 33.6489V31.6545H33.4688V33.6489C33.4688 34.1778 33.2613 34.685 32.8921 35.0591C32.5229 35.4331 32.0221 35.6432 31.5 35.6432Z" fill="#5B3726"/>
<path d="M40.3594 54.2568H22.6406L22.8092 54.0861C24.5912 52.2796 25.5927 49.8306 25.5938 47.2767H37.4062C37.4064 49.8307 38.408 52.2801 40.1908 54.0861L40.3594 54.2568Z" fill="#D9D9D9"/>
<path d="M58.3836 47.9415H4.61638C4.08823 47.9415 3.58172 47.7174 3.20826 47.3184C2.83481 46.9195 2.625 46.3784 2.625 45.8142V42.6233H60.375V45.8142C60.375 46.3784 60.1652 46.9195 59.7917 47.3184C59.4183 47.7174 58.9118 47.9415 58.3836 47.9415Z" fill="#E4E4E2"/>
<path d="M22.6406 54.2568H40.3594C40.8815 54.2568 41.3823 54.4669 41.7515 54.841C42.1207 55.215 42.3281 55.7222 42.3281 56.2512V58.2455H20.6719V56.2512C20.6719 55.7222 20.8793 55.215 21.2485 54.841C21.6177 54.4669 22.1185 54.2568 22.6406 54.2568V54.2568Z" fill="#E4E4E2"/>
<path d="M37.6127 49.271H25.3867C25.5243 48.6154 25.5935 47.947 25.5934 47.2767H37.4059C37.4058 47.947 37.4751 48.6154 37.6127 49.271V49.271Z" fill="#A8A8A8"/>
<ellipse cx="55.125" cy="10.7143" rx="2.625" ry="2.65909" fill="#62B58F"/>
</svg>
