<svg width="71" height="71" viewBox="0 0 71 71" fill="none" xmlns="http://www.w3.org/2000/svg">
<g clip-path="url(#clip0_1548_752)" filter="url(#filter0_d_1548_752)">
<path d="M4 47.5168V61.3982H8.27119V59.2626C8.27119 56.9039 10.1836 54.9914 12.5424 54.9914H46.7119C49.0706 54.9914 50.983 56.9039 50.983 59.2626V61.3982H55.2542V47.5168H4Z" fill="#D9C2A0"/>
<path d="M50.9832 18.6864C49.2141 18.6864 47.7798 17.2521 47.7798 15.483L48.8476 13.3474H53.1188L54.1866 15.483C54.1866 17.2521 52.7522 18.6864 50.9832 18.6864Z" fill="#F7BA61"/>
<path d="M44.5762 15.483L48.8474 10.144L49.9152 9.07617H52.0507L53.1185 10.144L57.3897 15.483H44.5762Z" fill="#E4E4E2"/>
<path d="M62.7286 62.4661C62.1389 62.4661 61.6608 61.988 61.6608 61.3983V5.87292C61.6608 4.10386 60.2265 2.66953 58.4574 2.66953H55.254C53.485 2.66953 52.0506 4.10386 52.0506 5.87292C52.0506 6.46261 51.5725 6.94072 50.9828 6.94072C50.3931 6.94072 49.915 6.46261 49.915 5.87292C49.9187 2.92553 52.3066 0.537585 55.254 0.533936H58.4574C61.4048 0.537585 63.7927 2.92553 63.7964 5.87292V61.3983C63.7964 61.988 63.3183 62.4661 62.7286 62.4661Z" fill="#C3C3C3"/>
<path d="M10.4069 22.9575H48.8476C51.2064 22.9575 53.1188 24.87 53.1188 27.2287V37.9067H6.13574V27.2287C6.13574 24.87 8.04818 22.9575 10.4069 22.9575Z" fill="#D9C2A0"/>
<path d="M6.13574 35.7712H53.1188V38.9746H6.13574V35.7712Z" fill="#C1AC8E"/>
<path d="M55.2542 48.5847H4V40.0423C4 38.863 4.95622 37.9067 6.13559 37.9067H53.1186C54.298 37.9067 55.2542 38.863 55.2542 40.0423V48.5847Z" fill="#5D62B5"/>
<path d="M14.6779 29.3645H23.2203C25.579 29.3645 27.4915 31.2769 27.4915 33.6357C27.4915 35.9944 25.579 37.9069 23.2203 37.9069H14.6779C12.3192 37.9069 10.4067 35.9944 10.4067 33.6357C10.4067 31.2769 12.3192 29.3645 14.6779 29.3645Z" fill="#50559F"/>
<path d="M36.0339 29.3645H44.5763C46.935 29.3645 48.8474 31.2769 48.8474 33.6357C48.8474 35.9944 46.935 37.9069 44.5763 37.9069H36.0339C33.6751 37.9069 31.7627 35.9944 31.7627 33.6357C31.7627 31.2769 33.6751 29.3645 36.0339 29.3645Z" fill="#50559F"/>
<path d="M48.8477 5.8728H53.1188V10.144H48.8477V5.8728Z" fill="#DBDBDB"/>
<path d="M65.9321 62.4662H59.5253C58.9356 62.4662 58.4575 61.988 58.4575 61.3984C58.4575 60.8087 58.9356 60.3306 59.5253 60.3306H65.9321C66.5218 60.3306 66.9999 60.8087 66.9999 61.3984C66.9999 61.988 66.5218 62.4662 65.9321 62.4662Z" fill="#B9B9B9"/>
<path d="M23.2203 29.3645H14.6779C12.3192 29.3645 10.4067 31.2769 10.4067 33.6357H27.4915C27.4915 31.2769 25.579 29.3645 23.2203 29.3645Z" fill="#5D62B5"/>
<path d="M44.5763 29.3645H36.0339C33.6751 29.3645 31.7627 31.2769 31.7627 33.6357H48.8474C48.8474 31.2769 46.935 29.3645 44.5763 29.3645Z" fill="#5D62B5"/>
</g>
<defs>
<filter id="filter0_d_1548_752" x="0" y="0" width="71" height="71" filterUnits="userSpaceOnUse" color-interpolation-filters="sRGB">
<feFlood flood-opacity="0" result="BackgroundImageFix"/>
<feColorMatrix in="SourceAlpha" type="matrix" values="0 0 0 0 0 0 0 0 0 0 0 0 0 0 0 0 0 0 127 0" result="hardAlpha"/>
<feOffset dy="4"/>
<feGaussianBlur stdDeviation="2"/>
<feComposite in2="hardAlpha" operator="out"/>
<feColorMatrix type="matrix" values="0 0 0 0 0 0 0 0 0 0 0 0 0 0 0 0 0 0 0.25 0"/>
<feBlend mode="normal" in2="BackgroundImageFix" result="effect1_dropShadow_1548_752"/>
<feBlend mode="normal" in="SourceGraphic" in2="effect1_dropShadow_1548_752" result="shape"/>
</filter>
<clipPath id="clip0_1548_752">
<rect width="63" height="63" fill="white" transform="translate(4)"/>
</clipPath>
</defs>
</svg>
